<?xml version="1.0" standalone="no"?>
<svg xmlns:xlink="http://www.w3.org/1999/xlink" id="wave" style="transform:rotate(0deg); transition: 0.3s" viewBox="0 0 1440 100" version="1.1" xmlns="http://www.w3.org/2000/svg"><defs><linearGradient id="sw-gradient-0" x1="0" x2="0" y1="1" y2="0"><stop stop-color="rgba(46, 179, 64, 1)" offset="0%"/><stop stop-color="rgba(93, 255, 114, 1)" offset="100%"/></linearGradient></defs><path style="transform:translate(0, 0px); opacity:1" fill="url(#sw-gradient-0)" d="M0,30L26.7,26.7C53.3,23,107,17,160,16.7C213.3,17,267,23,320,21.7C373.3,20,427,10,480,6.7C533.3,3,587,7,640,15C693.3,23,747,37,800,45C853.3,53,907,57,960,58.3C1013.3,60,1067,60,1120,53.3C1173.3,47,1227,33,1280,38.3C1333.3,43,1387,67,1440,63.3C1493.3,60,1547,30,1600,30C1653.3,30,1707,60,1760,75C1813.3,90,1867,90,1920,83.3C1973.3,77,2027,63,2080,63.3C2133.3,63,2187,77,2240,83.3C2293.3,90,2347,90,2400,81.7C2453.3,73,2507,57,2560,51.7C2613.3,47,2667,53,2720,55C2773.3,57,2827,53,2880,50C2933.3,47,2987,43,3040,35C3093.3,27,3147,13,3200,20C3253.3,27,3307,53,3360,56.7C3413.3,60,3467,40,3520,26.7C3573.3,13,3627,7,3680,5C3733.3,3,3787,7,3813,8.3L3840,10L3840,100L3813.3,100C3786.7,100,3733,100,3680,100C3626.7,100,3573,100,3520,100C3466.7,100,3413,100,3360,100C3306.7,100,3253,100,3200,100C3146.7,100,3093,100,3040,100C2986.7,100,2933,100,2880,100C2826.7,100,2773,100,2720,100C2666.7,100,2613,100,2560,100C2506.7,100,2453,100,2400,100C2346.7,100,2293,100,2240,100C2186.7,100,2133,100,2080,100C2026.7,100,1973,100,1920,100C1866.7,100,1813,100,1760,100C1706.7,100,1653,100,1600,100C1546.7,100,1493,100,1440,100C1386.7,100,1333,100,1280,100C1226.7,100,1173,100,1120,100C1066.7,100,1013,100,960,100C906.7,100,853,100,800,100C746.7,100,693,100,640,100C586.7,100,533,100,480,100C426.7,100,373,100,320,100C266.7,100,213,100,160,100C106.7,100,53,100,27,100L0,100Z"/></svg>