<?xml version="1.0" standalone="no"?>
<svg xmlns:xlink="http://www.w3.org/1999/xlink" id="wave" style="transform:rotate(0deg); transition: 0.3s" viewBox="0 0 1440 110" version="1.1" xmlns="http://www.w3.org/2000/svg"><defs><linearGradient id="sw-gradient-0" x1="0" x2="0" y1="1" y2="0"><stop stop-color="rgba(73, 170, 10, 0.8705882352941177)" offset="0%"/><stop stop-color="rgba(183.133, 230.24, 178.814, 1)" offset="100%"/></linearGradient></defs><path style="transform:translate(0, 0px); opacity:1" fill="url(#sw-gradient-0)" d="M0,33L30,34.8C60,37,120,40,180,49.5C240,59,300,73,360,66C420,59,480,29,540,14.7C600,0,660,0,720,14.7C780,29,840,59,900,66C960,73,1020,59,1080,60.5C1140,62,1200,81,1260,78.8C1320,77,1380,55,1440,55C1500,55,1560,77,1620,73.3C1680,70,1740,40,1800,29.3C1860,18,1920,26,1980,31.2C2040,37,2100,40,2160,49.5C2220,59,2280,73,2340,75.2C2400,77,2460,66,2520,62.3C2580,59,2640,62,2700,66C2760,70,2820,73,2880,69.7C2940,66,3000,55,3060,49.5C3120,44,3180,44,3240,38.5C3300,33,3360,22,3420,29.3C3480,37,3540,62,3600,62.3C3660,62,3720,37,3780,27.5C3840,18,3900,26,3960,38.5C4020,51,4080,70,4140,67.8C4200,66,4260,44,4290,33L4320,22L4320,110L4290,110C4260,110,4200,110,4140,110C4080,110,4020,110,3960,110C3900,110,3840,110,3780,110C3720,110,3660,110,3600,110C3540,110,3480,110,3420,110C3360,110,3300,110,3240,110C3180,110,3120,110,3060,110C3000,110,2940,110,2880,110C2820,110,2760,110,2700,110C2640,110,2580,110,2520,110C2460,110,2400,110,2340,110C2280,110,2220,110,2160,110C2100,110,2040,110,1980,110C1920,110,1860,110,1800,110C1740,110,1680,110,1620,110C1560,110,1500,110,1440,110C1380,110,1320,110,1260,110C1200,110,1140,110,1080,110C1020,110,960,110,900,110C840,110,780,110,720,110C660,110,600,110,540,110C480,110,420,110,360,110C300,110,240,110,180,110C120,110,60,110,30,110L0,110Z"/></svg>