<?xml version="1.0" standalone="no"?>
<svg xmlns:xlink="http://www.w3.org/1999/xlink" id="wave" style="transform:rotate(180deg); transition: 0.3s" viewBox="0 0 1440 100" version="1.1" xmlns="http://www.w3.org/2000/svg"><defs><linearGradient id="sw-gradient-0" x1="0" x2="0" y1="1" y2="0"><stop stop-color="rgba(73, 170, 10, 0.8705882352941177)" offset="0%"/><stop stop-color="rgba(183.133, 230.24, 178.814, 1)" offset="100%"/></linearGradient></defs><path style="transform:translate(0, 0px); opacity:1" fill="url(#sw-gradient-0)" d="M0,30L48,31.7C96,33,192,37,288,45C384,53,480,67,576,60C672,53,768,27,864,13.3C960,0,1056,0,1152,13.3C1248,27,1344,53,1440,60C1536,67,1632,53,1728,55C1824,57,1920,73,2016,71.7C2112,70,2208,50,2304,50C2400,50,2496,70,2592,66.7C2688,63,2784,37,2880,26.7C2976,17,3072,23,3168,28.3C3264,33,3360,37,3456,45C3552,53,3648,67,3744,68.3C3840,70,3936,60,4032,56.7C4128,53,4224,57,4320,60C4416,63,4512,67,4608,63.3C4704,60,4800,50,4896,45C4992,40,5088,40,5184,35C5280,30,5376,20,5472,26.7C5568,33,5664,57,5760,56.7C5856,57,5952,33,6048,25C6144,17,6240,23,6336,35C6432,47,6528,63,6624,61.7C6720,60,6816,40,6864,30L6912,20L6912,100L6864,100C6816,100,6720,100,6624,100C6528,100,6432,100,6336,100C6240,100,6144,100,6048,100C5952,100,5856,100,5760,100C5664,100,5568,100,5472,100C5376,100,5280,100,5184,100C5088,100,4992,100,4896,100C4800,100,4704,100,4608,100C4512,100,4416,100,4320,100C4224,100,4128,100,4032,100C3936,100,3840,100,3744,100C3648,100,3552,100,3456,100C3360,100,3264,100,3168,100C3072,100,2976,100,2880,100C2784,100,2688,100,2592,100C2496,100,2400,100,2304,100C2208,100,2112,100,2016,100C1920,100,1824,100,1728,100C1632,100,1536,100,1440,100C1344,100,1248,100,1152,100C1056,100,960,100,864,100C768,100,672,100,576,100C480,100,384,100,288,100C192,100,96,100,48,100L0,100Z"/></svg>